<svg width="33" height="32" viewBox="0 0 33 32" fill="none" xmlns="http://www.w3.org/2000/svg">
<path d="M0.327368 31.6V26.128L1.47937 25.744C5.12737 23.888 7.20737 20.816 7.71937 16.528L7.81537 14.992H0.807368V0.879997H14.7274V13.648C14.7274 17.04 14.0234 20.016 12.6154 22.576C9.73537 27.696 5.63937 30.704 0.327368 31.6ZM18.1834 31.6V26.128L19.3354 25.744C22.9834 23.888 25.0634 20.816 25.5754 16.528L25.6714 14.992H18.6634V0.879997H32.5834V13.648C32.5834 17.04 31.8794 20.016 30.4714 22.576C27.5914 27.696 23.4954 30.704 18.1834 31.6Z" fill="#B0855B"/>
</svg>
