<svg width="209" height="151" viewBox="0 0 209 151" fill="none" xmlns="http://www.w3.org/2000/svg">
<ellipse cx="1.73916" cy="1.84543" rx="1.73916" ry="1.73899" fill="#EBEBEB"/>
<ellipse cx="12.513" cy="1.84543" rx="1.73916" ry="1.73899" fill="#EBEBEB"/>
<ellipse cx="23.2868" cy="1.84543" rx="1.73916" ry="1.73899" fill="#EBEBEB"/>
<ellipse cx="34.0604" cy="1.84543" rx="1.73916" ry="1.73899" fill="#EBEBEB"/>
<ellipse cx="44.8344" cy="1.84543" rx="1.73916" ry="1.73899" fill="#EBEBEB"/>
<ellipse cx="55.6082" cy="1.84543" rx="1.73916" ry="1.73899" fill="#EBEBEB"/>
<ellipse cx="66.382" cy="1.84543" rx="1.73916" ry="1.73899" fill="#EBEBEB"/>
<ellipse cx="77.1557" cy="1.84543" rx="1.73916" ry="1.73899" fill="#EBEBEB"/>
<ellipse cx="87.9295" cy="1.84543" rx="1.73916" ry="1.73899" fill="#EBEBEB"/>
<ellipse cx="98.7033" cy="1.84543" rx="1.73916" ry="1.73899" fill="#EBEBEB"/>
<ellipse cx="109.477" cy="1.84543" rx="1.73916" ry="1.73899" fill="#EBEBEB"/>
<ellipse cx="120.251" cy="1.84543" rx="1.73916" ry="1.73899" fill="#EBEBEB"/>
<ellipse cx="131.025" cy="1.84543" rx="1.73916" ry="1.73899" fill="#EBEBEB"/>
<ellipse cx="141.798" cy="1.84543" rx="1.73916" ry="1.73899" fill="#EBEBEB"/>
<ellipse cx="152.572" cy="1.84543" rx="1.73916" ry="1.73899" fill="#EBEBEB"/>
<ellipse cx="163.346" cy="1.84543" rx="1.73916" ry="1.73899" fill="#EBEBEB"/>
<ellipse cx="174.12" cy="1.84543" rx="1.73916" ry="1.73899" fill="#EBEBEB"/>
<ellipse cx="184.894" cy="1.84543" rx="1.73916" ry="1.73899" fill="#EBEBEB"/>
<ellipse cx="195.667" cy="1.84543" rx="1.73916" ry="1.73899" fill="#EBEBEB"/>
<ellipse cx="206.441" cy="1.84543" rx="1.73916" ry="1.73899" fill="#EBEBEB"/>
<ellipse cx="1.73916" cy="11.6413" rx="1.73916" ry="1.73899" fill="#EBEBEB"/>
<ellipse cx="12.513" cy="11.6413" rx="1.73916" ry="1.73899" fill="#EBEBEB"/>
<ellipse cx="23.2868" cy="11.6413" rx="1.73916" ry="1.73899" fill="#EBEBEB"/>
<ellipse cx="34.0604" cy="11.6413" rx="1.73916" ry="1.73899" fill="#EBEBEB"/>
<ellipse cx="44.8344" cy="11.6413" rx="1.73916" ry="1.73899" fill="#EBEBEB"/>
<ellipse cx="55.6082" cy="11.6413" rx="1.73916" ry="1.73899" fill="#EBEBEB"/>
<ellipse cx="66.382" cy="11.6413" rx="1.73916" ry="1.73899" fill="#EBEBEB"/>
<ellipse cx="77.1557" cy="11.6413" rx="1.73916" ry="1.73899" fill="#EBEBEB"/>
<ellipse cx="87.9295" cy="11.6413" rx="1.73916" ry="1.73899" fill="#EBEBEB"/>
<ellipse cx="98.7033" cy="11.6413" rx="1.73916" ry="1.73899" fill="#EBEBEB"/>
<ellipse cx="109.477" cy="11.6413" rx="1.73916" ry="1.73899" fill="#EBEBEB"/>
<ellipse cx="120.251" cy="11.6413" rx="1.73916" ry="1.73899" fill="#EBEBEB"/>
<ellipse cx="131.025" cy="11.6413" rx="1.73916" ry="1.73899" fill="#EBEBEB"/>
<ellipse cx="141.798" cy="11.6413" rx="1.73916" ry="1.73899" fill="#EBEBEB"/>
<ellipse cx="152.572" cy="11.6413" rx="1.73916" ry="1.73899" fill="#EBEBEB"/>
<ellipse cx="163.346" cy="11.6413" rx="1.73916" ry="1.73899" fill="#EBEBEB"/>
<ellipse cx="174.12" cy="11.6413" rx="1.73916" ry="1.73899" fill="#EBEBEB"/>
<ellipse cx="184.894" cy="11.6413" rx="1.73916" ry="1.73899" fill="#EBEBEB"/>
<ellipse cx="195.667" cy="11.6413" rx="1.73916" ry="1.73899" fill="#EBEBEB"/>
<ellipse cx="206.441" cy="11.6413" rx="1.73916" ry="1.73899" fill="#EBEBEB"/>
<ellipse cx="1.73916" cy="21.4372" rx="1.73916" ry="1.73899" fill="#EBEBEB"/>
<ellipse cx="12.513" cy="21.4372" rx="1.73916" ry="1.73899" fill="#EBEBEB"/>
<ellipse cx="23.2868" cy="21.4372" rx="1.73916" ry="1.73899" fill="#EBEBEB"/>
<ellipse cx="34.0604" cy="21.4372" rx="1.73916" ry="1.73899" fill="#EBEBEB"/>
<ellipse cx="44.8344" cy="21.4372" rx="1.73916" ry="1.73899" fill="#EBEBEB"/>
<ellipse cx="55.6082" cy="21.4372" rx="1.73916" ry="1.73899" fill="#EBEBEB"/>
<ellipse cx="66.382" cy="21.4372" rx="1.73916" ry="1.73899" fill="#EBEBEB"/>
<ellipse cx="77.1557" cy="21.4372" rx="1.73916" ry="1.73899" fill="#EBEBEB"/>
<ellipse cx="87.9295" cy="21.4372" rx="1.73916" ry="1.73899" fill="#EBEBEB"/>
<ellipse cx="98.7033" cy="21.4372" rx="1.73916" ry="1.73899" fill="#EBEBEB"/>
<ellipse cx="109.477" cy="21.4372" rx="1.73916" ry="1.73899" fill="#EBEBEB"/>
<ellipse cx="120.251" cy="21.4372" rx="1.73916" ry="1.73899" fill="#EBEBEB"/>
<ellipse cx="131.025" cy="21.4372" rx="1.73916" ry="1.73899" fill="#EBEBEB"/>
<ellipse cx="141.798" cy="21.4372" rx="1.73916" ry="1.73899" fill="#EBEBEB"/>
<ellipse cx="152.572" cy="21.4372" rx="1.73916" ry="1.73899" fill="#EBEBEB"/>
<ellipse cx="163.346" cy="21.4372" rx="1.73916" ry="1.73899" fill="#EBEBEB"/>
<ellipse cx="174.12" cy="21.4372" rx="1.73916" ry="1.73899" fill="#EBEBEB"/>
<ellipse cx="184.894" cy="21.4372" rx="1.73916" ry="1.73899" fill="#EBEBEB"/>
<ellipse cx="195.667" cy="21.4372" rx="1.73916" ry="1.73899" fill="#EBEBEB"/>
<ellipse cx="206.441" cy="21.4372" rx="1.73916" ry="1.73899" fill="#EBEBEB"/>
<ellipse cx="1.73916" cy="31.2334" rx="1.73916" ry="1.73899" fill="#EBEBEB"/>
<ellipse cx="12.513" cy="31.2334" rx="1.73916" ry="1.73899" fill="#EBEBEB"/>
<ellipse cx="23.2868" cy="31.2334" rx="1.73916" ry="1.73899" fill="#EBEBEB"/>
<ellipse cx="34.0604" cy="31.2334" rx="1.73916" ry="1.73899" fill="#EBEBEB"/>
<ellipse cx="44.8344" cy="31.2334" rx="1.73916" ry="1.73899" fill="#EBEBEB"/>
<ellipse cx="55.6082" cy="31.2334" rx="1.73916" ry="1.73899" fill="#EBEBEB"/>
<ellipse cx="66.382" cy="31.2334" rx="1.73916" ry="1.73899" fill="#EBEBEB"/>
<ellipse cx="77.1557" cy="31.2334" rx="1.73916" ry="1.73899" fill="#EBEBEB"/>
<ellipse cx="87.9295" cy="31.2334" rx="1.73916" ry="1.73899" fill="#EBEBEB"/>
<ellipse cx="98.7033" cy="31.2334" rx="1.73916" ry="1.73899" fill="#EBEBEB"/>
<ellipse cx="109.477" cy="31.2334" rx="1.73916" ry="1.73899" fill="#EBEBEB"/>
<ellipse cx="120.251" cy="31.2334" rx="1.73916" ry="1.73899" fill="#EBEBEB"/>
<ellipse cx="131.025" cy="31.2334" rx="1.73916" ry="1.73899" fill="#EBEBEB"/>
<ellipse cx="141.798" cy="31.2334" rx="1.73916" ry="1.73899" fill="#EBEBEB"/>
<ellipse cx="152.572" cy="31.2334" rx="1.73916" ry="1.73899" fill="#EBEBEB"/>
<ellipse cx="163.346" cy="31.2334" rx="1.73916" ry="1.73899" fill="#EBEBEB"/>
<ellipse cx="174.12" cy="31.2334" rx="1.73916" ry="1.73899" fill="#EBEBEB"/>
<ellipse cx="184.894" cy="31.2334" rx="1.73916" ry="1.73899" fill="#EBEBEB"/>
<ellipse cx="195.667" cy="31.2334" rx="1.73916" ry="1.73899" fill="#EBEBEB"/>
<ellipse cx="206.441" cy="31.2334" rx="1.73916" ry="1.73899" fill="#EBEBEB"/>
<ellipse cx="1.73916" cy="41.0293" rx="1.73916" ry="1.73899" fill="#EBEBEB"/>
<ellipse cx="12.513" cy="41.0293" rx="1.73916" ry="1.73899" fill="#EBEBEB"/>
<ellipse cx="23.2868" cy="41.0293" rx="1.73916" ry="1.73899" fill="#EBEBEB"/>
<ellipse cx="34.0604" cy="41.0293" rx="1.73916" ry="1.73899" fill="#EBEBEB"/>
<ellipse cx="44.8344" cy="41.0293" rx="1.73916" ry="1.73899" fill="#EBEBEB"/>
<ellipse cx="55.6082" cy="41.0293" rx="1.73916" ry="1.73899" fill="#EBEBEB"/>
<ellipse cx="66.382" cy="41.0293" rx="1.73916" ry="1.73899" fill="#EBEBEB"/>
<ellipse cx="77.1557" cy="41.0293" rx="1.73916" ry="1.73899" fill="#EBEBEB"/>
<ellipse cx="87.9295" cy="41.0293" rx="1.73916" ry="1.73899" fill="#EBEBEB"/>
<ellipse cx="98.7033" cy="41.0293" rx="1.73916" ry="1.73899" fill="#EBEBEB"/>
<ellipse cx="109.477" cy="41.0293" rx="1.73916" ry="1.73899" fill="#EBEBEB"/>
<ellipse cx="120.251" cy="41.0293" rx="1.73916" ry="1.73899" fill="#EBEBEB"/>
<ellipse cx="131.025" cy="41.0293" rx="1.73916" ry="1.73899" fill="#EBEBEB"/>
<ellipse cx="141.798" cy="41.0293" rx="1.73916" ry="1.73899" fill="#EBEBEB"/>
<ellipse cx="152.572" cy="41.0293" rx="1.73916" ry="1.73899" fill="#EBEBEB"/>
<ellipse cx="163.346" cy="41.0293" rx="1.73916" ry="1.73899" fill="#EBEBEB"/>
<ellipse cx="174.12" cy="41.0293" rx="1.73916" ry="1.73899" fill="#EBEBEB"/>
<ellipse cx="184.894" cy="41.0293" rx="1.73916" ry="1.73899" fill="#EBEBEB"/>
<ellipse cx="195.667" cy="41.0293" rx="1.73916" ry="1.73899" fill="#EBEBEB"/>
<ellipse cx="206.441" cy="41.0293" rx="1.73916" ry="1.73899" fill="#EBEBEB"/>
<ellipse cx="1.73916" cy="50.8252" rx="1.73916" ry="1.73899" fill="#EBEBEB"/>
<ellipse cx="12.513" cy="50.8252" rx="1.73916" ry="1.73899" fill="#EBEBEB"/>
<ellipse cx="23.2868" cy="50.8252" rx="1.73916" ry="1.73899" fill="#EBEBEB"/>
<ellipse cx="34.0604" cy="50.8252" rx="1.73916" ry="1.73899" fill="#EBEBEB"/>
<ellipse cx="44.8344" cy="50.8252" rx="1.73916" ry="1.73899" fill="#EBEBEB"/>
<ellipse cx="55.6082" cy="50.8252" rx="1.73916" ry="1.73899" fill="#EBEBEB"/>
<ellipse cx="66.382" cy="50.8252" rx="1.73916" ry="1.73899" fill="#EBEBEB"/>
<ellipse cx="77.1557" cy="50.8252" rx="1.73916" ry="1.73899" fill="#EBEBEB"/>
<ellipse cx="87.9295" cy="50.8252" rx="1.73916" ry="1.73899" fill="#EBEBEB"/>
<ellipse cx="98.7033" cy="50.8252" rx="1.73916" ry="1.73899" fill="#EBEBEB"/>
<ellipse cx="109.477" cy="50.8252" rx="1.73916" ry="1.73899" fill="#EBEBEB"/>
<ellipse cx="120.251" cy="50.8252" rx="1.73916" ry="1.73899" fill="#EBEBEB"/>
<ellipse cx="131.025" cy="50.8252" rx="1.73916" ry="1.73899" fill="#EBEBEB"/>
<ellipse cx="141.798" cy="50.8252" rx="1.73916" ry="1.73899" fill="#EBEBEB"/>
<ellipse cx="152.572" cy="50.8252" rx="1.73916" ry="1.73899" fill="#EBEBEB"/>
<ellipse cx="163.346" cy="50.8252" rx="1.73916" ry="1.73899" fill="#EBEBEB"/>
<ellipse cx="174.12" cy="50.8252" rx="1.73916" ry="1.73899" fill="#EBEBEB"/>
<ellipse cx="184.894" cy="50.8252" rx="1.73916" ry="1.73899" fill="#EBEBEB"/>
<ellipse cx="195.667" cy="50.8252" rx="1.73916" ry="1.73899" fill="#EBEBEB"/>
<ellipse cx="206.441" cy="50.8252" rx="1.73916" ry="1.73899" fill="#EBEBEB"/>
<ellipse cx="1.73916" cy="60.6213" rx="1.73916" ry="1.73899" fill="#EBEBEB"/>
<ellipse cx="12.513" cy="60.6213" rx="1.73916" ry="1.73899" fill="#EBEBEB"/>
<ellipse cx="23.2868" cy="60.6213" rx="1.73916" ry="1.73899" fill="#EBEBEB"/>
<ellipse cx="34.0604" cy="60.6213" rx="1.73916" ry="1.73899" fill="#EBEBEB"/>
<ellipse cx="44.8344" cy="60.6213" rx="1.73916" ry="1.73899" fill="#EBEBEB"/>
<ellipse cx="55.6082" cy="60.6213" rx="1.73916" ry="1.73899" fill="#EBEBEB"/>
<ellipse cx="66.382" cy="60.6213" rx="1.73916" ry="1.73899" fill="#EBEBEB"/>
<ellipse cx="77.1557" cy="60.6213" rx="1.73916" ry="1.73899" fill="#EBEBEB"/>
<ellipse cx="87.9295" cy="60.6213" rx="1.73916" ry="1.73899" fill="#EBEBEB"/>
<ellipse cx="98.7033" cy="60.6213" rx="1.73916" ry="1.73899" fill="#EBEBEB"/>
<ellipse cx="109.477" cy="60.6213" rx="1.73916" ry="1.73899" fill="#EBEBEB"/>
<ellipse cx="120.251" cy="60.6213" rx="1.73916" ry="1.73899" fill="#EBEBEB"/>
<ellipse cx="131.025" cy="60.6213" rx="1.73916" ry="1.73899" fill="#EBEBEB"/>
<ellipse cx="141.798" cy="60.6213" rx="1.73916" ry="1.73899" fill="#EBEBEB"/>
<ellipse cx="152.572" cy="60.6213" rx="1.73916" ry="1.73899" fill="#EBEBEB"/>
<ellipse cx="163.346" cy="60.6213" rx="1.73916" ry="1.73899" fill="#EBEBEB"/>
<ellipse cx="174.12" cy="60.6213" rx="1.73916" ry="1.73899" fill="#EBEBEB"/>
<ellipse cx="184.894" cy="60.6213" rx="1.73916" ry="1.73899" fill="#EBEBEB"/>
<ellipse cx="195.667" cy="60.6213" rx="1.73916" ry="1.73899" fill="#EBEBEB"/>
<ellipse cx="206.441" cy="60.6213" rx="1.73916" ry="1.73899" fill="#EBEBEB"/>
<ellipse cx="1.73916" cy="70.4172" rx="1.73916" ry="1.73899" fill="#EBEBEB"/>
<ellipse cx="12.513" cy="70.4172" rx="1.73916" ry="1.73899" fill="#EBEBEB"/>
<ellipse cx="23.2868" cy="70.4172" rx="1.73916" ry="1.73899" fill="#EBEBEB"/>
<ellipse cx="34.0604" cy="70.4172" rx="1.73916" ry="1.73899" fill="#EBEBEB"/>
<ellipse cx="44.8344" cy="70.4172" rx="1.73916" ry="1.73899" fill="#EBEBEB"/>
<ellipse cx="55.6082" cy="70.4172" rx="1.73916" ry="1.73899" fill="#EBEBEB"/>
<ellipse cx="66.382" cy="70.4172" rx="1.73916" ry="1.73899" fill="#EBEBEB"/>
<ellipse cx="77.1557" cy="70.4172" rx="1.73916" ry="1.73899" fill="#EBEBEB"/>
<ellipse cx="87.9295" cy="70.4172" rx="1.73916" ry="1.73899" fill="#EBEBEB"/>
<ellipse cx="98.7033" cy="70.4172" rx="1.73916" ry="1.73899" fill="#EBEBEB"/>
<ellipse cx="109.477" cy="70.4172" rx="1.73916" ry="1.73899" fill="#EBEBEB"/>
<ellipse cx="120.251" cy="70.4172" rx="1.73916" ry="1.73899" fill="#EBEBEB"/>
<ellipse cx="131.025" cy="70.4172" rx="1.73916" ry="1.73899" fill="#EBEBEB"/>
<ellipse cx="141.798" cy="70.4172" rx="1.73916" ry="1.73899" fill="#EBEBEB"/>
<ellipse cx="152.572" cy="70.4172" rx="1.73916" ry="1.73899" fill="#EBEBEB"/>
<ellipse cx="163.346" cy="70.4172" rx="1.73916" ry="1.73899" fill="#EBEBEB"/>
<ellipse cx="174.12" cy="70.4172" rx="1.73916" ry="1.73899" fill="#EBEBEB"/>
<ellipse cx="184.894" cy="70.4172" rx="1.73916" ry="1.73899" fill="#EBEBEB"/>
<ellipse cx="195.667" cy="70.4172" rx="1.73916" ry="1.73899" fill="#EBEBEB"/>
<ellipse cx="206.441" cy="70.4172" rx="1.73916" ry="1.73899" fill="#EBEBEB"/>
<ellipse cx="1.73916" cy="80.2131" rx="1.73916" ry="1.73899" fill="#EBEBEB"/>
<ellipse cx="12.513" cy="80.2131" rx="1.73916" ry="1.73899" fill="#EBEBEB"/>
<ellipse cx="23.2868" cy="80.2131" rx="1.73916" ry="1.73899" fill="#EBEBEB"/>
<ellipse cx="34.0604" cy="80.2131" rx="1.73916" ry="1.73899" fill="#EBEBEB"/>
<ellipse cx="44.8344" cy="80.2131" rx="1.73916" ry="1.73899" fill="#EBEBEB"/>
<ellipse cx="55.6082" cy="80.2131" rx="1.73916" ry="1.73899" fill="#EBEBEB"/>
<ellipse cx="66.382" cy="80.2131" rx="1.73916" ry="1.73899" fill="#EBEBEB"/>
<ellipse cx="77.1557" cy="80.2131" rx="1.73916" ry="1.73899" fill="#EBEBEB"/>
<ellipse cx="87.9295" cy="80.2131" rx="1.73916" ry="1.73899" fill="#EBEBEB"/>
<ellipse cx="98.7033" cy="80.2131" rx="1.73916" ry="1.73899" fill="#EBEBEB"/>
<ellipse cx="109.477" cy="80.2131" rx="1.73916" ry="1.73899" fill="#EBEBEB"/>
<ellipse cx="120.251" cy="80.2131" rx="1.73916" ry="1.73899" fill="#EBEBEB"/>
<ellipse cx="131.025" cy="80.2131" rx="1.73916" ry="1.73899" fill="#EBEBEB"/>
<ellipse cx="141.798" cy="80.2131" rx="1.73916" ry="1.73899" fill="#EBEBEB"/>
<ellipse cx="152.572" cy="80.2131" rx="1.73916" ry="1.73899" fill="#EBEBEB"/>
<ellipse cx="163.346" cy="80.2131" rx="1.73916" ry="1.73899" fill="#EBEBEB"/>
<ellipse cx="174.12" cy="80.2131" rx="1.73916" ry="1.73899" fill="#EBEBEB"/>
<ellipse cx="184.894" cy="80.2131" rx="1.73916" ry="1.73899" fill="#EBEBEB"/>
<ellipse cx="195.667" cy="80.2131" rx="1.73916" ry="1.73899" fill="#EBEBEB"/>
<ellipse cx="206.441" cy="80.2131" rx="1.73916" ry="1.73899" fill="#EBEBEB"/>
<ellipse cx="1.73916" cy="90.009" rx="1.73916" ry="1.73899" fill="#EBEBEB"/>
<ellipse cx="12.513" cy="90.009" rx="1.73916" ry="1.73899" fill="#EBEBEB"/>
<ellipse cx="23.2868" cy="90.009" rx="1.73916" ry="1.73899" fill="#EBEBEB"/>
<ellipse cx="34.0604" cy="90.009" rx="1.73916" ry="1.73899" fill="#EBEBEB"/>
<ellipse cx="44.8344" cy="90.009" rx="1.73916" ry="1.73899" fill="#EBEBEB"/>
<ellipse cx="55.6082" cy="90.009" rx="1.73916" ry="1.73899" fill="#EBEBEB"/>
<ellipse cx="66.382" cy="90.009" rx="1.73916" ry="1.73899" fill="#EBEBEB"/>
<ellipse cx="77.1557" cy="90.009" rx="1.73916" ry="1.73899" fill="#EBEBEB"/>
<ellipse cx="87.9295" cy="90.009" rx="1.73916" ry="1.73899" fill="#EBEBEB"/>
<ellipse cx="98.7033" cy="90.009" rx="1.73916" ry="1.73899" fill="#EBEBEB"/>
<ellipse cx="109.477" cy="90.009" rx="1.73916" ry="1.73899" fill="#EBEBEB"/>
<ellipse cx="120.251" cy="90.009" rx="1.73916" ry="1.73899" fill="#EBEBEB"/>
<ellipse cx="131.025" cy="90.009" rx="1.73916" ry="1.73899" fill="#EBEBEB"/>
<ellipse cx="141.798" cy="90.009" rx="1.73916" ry="1.73899" fill="#EBEBEB"/>
<ellipse cx="152.572" cy="90.009" rx="1.73916" ry="1.73899" fill="#EBEBEB"/>
<ellipse cx="163.346" cy="90.009" rx="1.73916" ry="1.73899" fill="#EBEBEB"/>
<ellipse cx="174.12" cy="90.009" rx="1.73916" ry="1.73899" fill="#EBEBEB"/>
<ellipse cx="184.894" cy="90.009" rx="1.73916" ry="1.73899" fill="#EBEBEB"/>
<ellipse cx="195.667" cy="90.009" rx="1.73916" ry="1.73899" fill="#EBEBEB"/>
<ellipse cx="206.441" cy="90.009" rx="1.73916" ry="1.73899" fill="#EBEBEB"/>
<ellipse cx="1.73916" cy="99.8052" rx="1.73916" ry="1.73899" fill="#EBEBEB"/>
<ellipse cx="12.513" cy="99.8052" rx="1.73916" ry="1.73899" fill="#EBEBEB"/>
<ellipse cx="23.2868" cy="99.8052" rx="1.73916" ry="1.73899" fill="#EBEBEB"/>
<ellipse cx="34.0604" cy="99.8052" rx="1.73916" ry="1.73899" fill="#EBEBEB"/>
<ellipse cx="44.8344" cy="99.8052" rx="1.73916" ry="1.73899" fill="#EBEBEB"/>
<ellipse cx="55.6082" cy="99.8052" rx="1.73916" ry="1.73899" fill="#EBEBEB"/>
<ellipse cx="66.382" cy="99.8052" rx="1.73916" ry="1.73899" fill="#EBEBEB"/>
<ellipse cx="77.1557" cy="99.8052" rx="1.73916" ry="1.73899" fill="#EBEBEB"/>
<ellipse cx="87.9295" cy="99.8052" rx="1.73916" ry="1.73899" fill="#EBEBEB"/>
<ellipse cx="98.7033" cy="99.8052" rx="1.73916" ry="1.73899" fill="#EBEBEB"/>
<ellipse cx="109.477" cy="99.8052" rx="1.73916" ry="1.73899" fill="#EBEBEB"/>
<ellipse cx="120.251" cy="99.8052" rx="1.73916" ry="1.73899" fill="#EBEBEB"/>
<ellipse cx="131.025" cy="99.8052" rx="1.73916" ry="1.73899" fill="#EBEBEB"/>
<ellipse cx="141.798" cy="99.8052" rx="1.73916" ry="1.73899" fill="#EBEBEB"/>
<ellipse cx="152.572" cy="99.8052" rx="1.73916" ry="1.73899" fill="#EBEBEB"/>
<ellipse cx="163.346" cy="99.8052" rx="1.73916" ry="1.73899" fill="#EBEBEB"/>
<ellipse cx="174.12" cy="99.8052" rx="1.73916" ry="1.73899" fill="#EBEBEB"/>
<ellipse cx="184.894" cy="99.8052" rx="1.73916" ry="1.73899" fill="#EBEBEB"/>
<ellipse cx="195.667" cy="99.8052" rx="1.73916" ry="1.73899" fill="#EBEBEB"/>
<ellipse cx="206.441" cy="99.8052" rx="1.73916" ry="1.73899" fill="#EBEBEB"/>
<ellipse cx="1.73916" cy="109.601" rx="1.73916" ry="1.73899" fill="#EBEBEB"/>
<ellipse cx="12.513" cy="109.601" rx="1.73916" ry="1.73899" fill="#EBEBEB"/>
<ellipse cx="23.2868" cy="109.601" rx="1.73916" ry="1.73899" fill="#EBEBEB"/>
<ellipse cx="34.0604" cy="109.601" rx="1.73916" ry="1.73899" fill="#EBEBEB"/>
<ellipse cx="44.8344" cy="109.601" rx="1.73916" ry="1.73899" fill="#EBEBEB"/>
<ellipse cx="55.6082" cy="109.601" rx="1.73916" ry="1.73899" fill="#EBEBEB"/>
<ellipse cx="66.382" cy="109.601" rx="1.73916" ry="1.73899" fill="#EBEBEB"/>
<ellipse cx="77.1557" cy="109.601" rx="1.73916" ry="1.73899" fill="#EBEBEB"/>
<ellipse cx="87.9295" cy="109.601" rx="1.73916" ry="1.73899" fill="#EBEBEB"/>
<ellipse cx="98.7033" cy="109.601" rx="1.73916" ry="1.73899" fill="#EBEBEB"/>
<ellipse cx="109.477" cy="109.601" rx="1.73916" ry="1.73899" fill="#EBEBEB"/>
<ellipse cx="120.251" cy="109.601" rx="1.73916" ry="1.73899" fill="#EBEBEB"/>
<ellipse cx="131.025" cy="109.601" rx="1.73916" ry="1.73899" fill="#EBEBEB"/>
<ellipse cx="141.798" cy="109.601" rx="1.73916" ry="1.73899" fill="#EBEBEB"/>
<ellipse cx="152.572" cy="109.601" rx="1.73916" ry="1.73899" fill="#EBEBEB"/>
<ellipse cx="163.346" cy="109.601" rx="1.73916" ry="1.73899" fill="#EBEBEB"/>
<ellipse cx="174.12" cy="109.601" rx="1.73916" ry="1.73899" fill="#EBEBEB"/>
<ellipse cx="184.894" cy="109.601" rx="1.73916" ry="1.73899" fill="#EBEBEB"/>
<ellipse cx="195.667" cy="109.601" rx="1.73916" ry="1.73899" fill="#EBEBEB"/>
<ellipse cx="206.441" cy="109.601" rx="1.73916" ry="1.73899" fill="#EBEBEB"/>
<ellipse cx="1.73916" cy="119.397" rx="1.73916" ry="1.73899" fill="#EBEBEB"/>
<ellipse cx="12.513" cy="119.397" rx="1.73916" ry="1.73899" fill="#EBEBEB"/>
<ellipse cx="23.2868" cy="119.397" rx="1.73916" ry="1.73899" fill="#EBEBEB"/>
<ellipse cx="34.0604" cy="119.397" rx="1.73916" ry="1.73899" fill="#EBEBEB"/>
<ellipse cx="44.8344" cy="119.397" rx="1.73916" ry="1.73899" fill="#EBEBEB"/>
<ellipse cx="55.6082" cy="119.397" rx="1.73916" ry="1.73899" fill="#EBEBEB"/>
<ellipse cx="66.382" cy="119.397" rx="1.73916" ry="1.73899" fill="#EBEBEB"/>
<ellipse cx="77.1557" cy="119.397" rx="1.73916" ry="1.73899" fill="#EBEBEB"/>
<ellipse cx="87.9295" cy="119.397" rx="1.73916" ry="1.73899" fill="#EBEBEB"/>
<ellipse cx="98.7033" cy="119.397" rx="1.73916" ry="1.73899" fill="#EBEBEB"/>
<ellipse cx="109.477" cy="119.397" rx="1.73916" ry="1.73899" fill="#EBEBEB"/>
<ellipse cx="120.251" cy="119.397" rx="1.73916" ry="1.73899" fill="#EBEBEB"/>
<ellipse cx="131.025" cy="119.397" rx="1.73916" ry="1.73899" fill="#EBEBEB"/>
<ellipse cx="141.798" cy="119.397" rx="1.73916" ry="1.73899" fill="#EBEBEB"/>
<ellipse cx="152.572" cy="119.397" rx="1.73916" ry="1.73899" fill="#EBEBEB"/>
<ellipse cx="163.346" cy="119.397" rx="1.73916" ry="1.73899" fill="#EBEBEB"/>
<ellipse cx="174.12" cy="119.397" rx="1.73916" ry="1.73899" fill="#EBEBEB"/>
<ellipse cx="184.894" cy="119.397" rx="1.73916" ry="1.73899" fill="#EBEBEB"/>
<ellipse cx="195.667" cy="119.397" rx="1.73916" ry="1.73899" fill="#EBEBEB"/>
<ellipse cx="206.441" cy="119.397" rx="1.73916" ry="1.73899" fill="#EBEBEB"/>
<ellipse cx="1.73916" cy="129.193" rx="1.73916" ry="1.73899" fill="#EBEBEB"/>
<ellipse cx="12.513" cy="129.193" rx="1.73916" ry="1.73899" fill="#EBEBEB"/>
<ellipse cx="23.2868" cy="129.193" rx="1.73916" ry="1.73899" fill="#EBEBEB"/>
<ellipse cx="34.0604" cy="129.193" rx="1.73916" ry="1.73899" fill="#EBEBEB"/>
<ellipse cx="44.8344" cy="129.193" rx="1.73916" ry="1.73899" fill="#EBEBEB"/>
<ellipse cx="55.6082" cy="129.193" rx="1.73916" ry="1.73899" fill="#EBEBEB"/>
<ellipse cx="66.382" cy="129.193" rx="1.73916" ry="1.73899" fill="#EBEBEB"/>
<ellipse cx="77.1557" cy="129.193" rx="1.73916" ry="1.73899" fill="#EBEBEB"/>
<ellipse cx="87.9295" cy="129.193" rx="1.73916" ry="1.73899" fill="#EBEBEB"/>
<ellipse cx="98.7033" cy="129.193" rx="1.73916" ry="1.73899" fill="#EBEBEB"/>
<ellipse cx="109.477" cy="129.193" rx="1.73916" ry="1.73899" fill="#EBEBEB"/>
<ellipse cx="120.251" cy="129.193" rx="1.73916" ry="1.73899" fill="#EBEBEB"/>
<ellipse cx="131.025" cy="129.193" rx="1.73916" ry="1.73899" fill="#EBEBEB"/>
<ellipse cx="141.798" cy="129.193" rx="1.73916" ry="1.73899" fill="#EBEBEB"/>
<ellipse cx="152.572" cy="129.193" rx="1.73916" ry="1.73899" fill="#EBEBEB"/>
<ellipse cx="163.346" cy="129.193" rx="1.73916" ry="1.73899" fill="#EBEBEB"/>
<ellipse cx="174.12" cy="129.193" rx="1.73916" ry="1.73899" fill="#EBEBEB"/>
<ellipse cx="184.894" cy="129.193" rx="1.73916" ry="1.73899" fill="#EBEBEB"/>
<ellipse cx="195.667" cy="129.193" rx="1.73916" ry="1.73899" fill="#EBEBEB"/>
<ellipse cx="206.441" cy="129.193" rx="1.73916" ry="1.73899" fill="#EBEBEB"/>
<ellipse cx="1.73916" cy="138.989" rx="1.73916" ry="1.73899" fill="#EBEBEB"/>
<ellipse cx="12.513" cy="138.989" rx="1.73916" ry="1.73899" fill="#EBEBEB"/>
<ellipse cx="23.2868" cy="138.989" rx="1.73916" ry="1.73899" fill="#EBEBEB"/>
<ellipse cx="34.0604" cy="138.989" rx="1.73916" ry="1.73899" fill="#EBEBEB"/>
<ellipse cx="44.8344" cy="138.989" rx="1.73916" ry="1.73899" fill="#EBEBEB"/>
<ellipse cx="55.6082" cy="138.989" rx="1.73916" ry="1.73899" fill="#EBEBEB"/>
<ellipse cx="66.382" cy="138.989" rx="1.73916" ry="1.73899" fill="#EBEBEB"/>
<ellipse cx="77.1557" cy="138.989" rx="1.73916" ry="1.73899" fill="#EBEBEB"/>
<ellipse cx="87.9295" cy="138.989" rx="1.73916" ry="1.73899" fill="#EBEBEB"/>
<ellipse cx="98.7033" cy="138.989" rx="1.73916" ry="1.73899" fill="#EBEBEB"/>
<ellipse cx="109.477" cy="138.989" rx="1.73916" ry="1.73899" fill="#EBEBEB"/>
<ellipse cx="120.251" cy="138.989" rx="1.73916" ry="1.73899" fill="#EBEBEB"/>
<ellipse cx="131.025" cy="138.989" rx="1.73916" ry="1.73899" fill="#EBEBEB"/>
<ellipse cx="141.798" cy="138.989" rx="1.73916" ry="1.73899" fill="#EBEBEB"/>
<ellipse cx="152.572" cy="138.989" rx="1.73916" ry="1.73899" fill="#EBEBEB"/>
<ellipse cx="163.346" cy="138.989" rx="1.73916" ry="1.73899" fill="#EBEBEB"/>
<ellipse cx="174.12" cy="138.989" rx="1.73916" ry="1.73899" fill="#EBEBEB"/>
<ellipse cx="184.894" cy="138.989" rx="1.73916" ry="1.73899" fill="#EBEBEB"/>
<ellipse cx="195.667" cy="138.989" rx="1.73916" ry="1.73899" fill="#EBEBEB"/>
<ellipse cx="206.441" cy="138.989" rx="1.73916" ry="1.73899" fill="#EBEBEB"/>
<ellipse cx="1.73916" cy="148.785" rx="1.73916" ry="1.73899" fill="#EBEBEB"/>
<ellipse cx="12.513" cy="148.785" rx="1.73916" ry="1.73899" fill="#EBEBEB"/>
<ellipse cx="23.2868" cy="148.785" rx="1.73916" ry="1.73899" fill="#EBEBEB"/>
<ellipse cx="34.0604" cy="148.785" rx="1.73916" ry="1.73899" fill="#EBEBEB"/>
<ellipse cx="44.8344" cy="148.785" rx="1.73916" ry="1.73899" fill="#EBEBEB"/>
<ellipse cx="55.6082" cy="148.785" rx="1.73916" ry="1.73899" fill="#EBEBEB"/>
<ellipse cx="66.382" cy="148.785" rx="1.73916" ry="1.73899" fill="#EBEBEB"/>
<ellipse cx="77.1557" cy="148.785" rx="1.73916" ry="1.73899" fill="#EBEBEB"/>
<ellipse cx="87.9295" cy="148.785" rx="1.73916" ry="1.73899" fill="#EBEBEB"/>
<ellipse cx="98.7033" cy="148.785" rx="1.73916" ry="1.73899" fill="#EBEBEB"/>
<ellipse cx="109.477" cy="148.785" rx="1.73916" ry="1.73899" fill="#EBEBEB"/>
<ellipse cx="120.251" cy="148.785" rx="1.73916" ry="1.73899" fill="#EBEBEB"/>
<ellipse cx="131.025" cy="148.785" rx="1.73916" ry="1.73899" fill="#EBEBEB"/>
<ellipse cx="141.798" cy="148.785" rx="1.73916" ry="1.73899" fill="#EBEBEB"/>
<ellipse cx="152.572" cy="148.785" rx="1.73916" ry="1.73899" fill="#EBEBEB"/>
<ellipse cx="163.346" cy="148.785" rx="1.73916" ry="1.73899" fill="#EBEBEB"/>
<ellipse cx="174.12" cy="148.785" rx="1.73916" ry="1.73899" fill="#EBEBEB"/>
<ellipse cx="184.894" cy="148.785" rx="1.73916" ry="1.73899" fill="#EBEBEB"/>
<ellipse cx="195.667" cy="148.785" rx="1.73916" ry="1.73899" fill="#EBEBEB"/>
<ellipse cx="206.441" cy="148.785" rx="1.73916" ry="1.73899" fill="#EBEBEB"/>
</svg>
